<svg width="50" height="50" fill="none" xmlns="http://www.w3.org/2000/svg"><path fill-rule="evenodd" clip-rule="evenodd" d="M29.17 18.464h7.944v-2.24H29.17v2.24zm1.882 4.888c-.506.507-.826 1.194-.956 2.06h6.179c-.066-.924-.386-1.623-.954-2.104-.575-.478-1.283-.716-2.13-.716-.917 0-1.633.253-2.14.76zm5.362-3.007c.958.414 1.746 1.072 2.367 1.97.566.79.93 1.708 1.096 2.752.097.61.135 1.493.12 2.642h-9.99c.06 1.334.533 2.271 1.436 2.807.547.334 1.205.502 1.978.502.813 0 1.478-.204 1.988-.61.28-.22.527-.526.739-.916h3.66c-.097.788-.542 1.591-1.328 2.406-1.228 1.293-2.948 1.94-5.158 1.94-1.826 0-3.436-.544-4.828-1.637-1.398-1.09-2.093-2.868-2.093-5.328 0-2.307.63-4.076 1.887-5.307 1.261-1.228 2.893-1.846 4.902-1.846 1.194 0 2.268.209 3.224.625zM13.695 25.46v4.801h4.502c.804 0 1.432-.106 1.878-.317.813-.394 1.22-1.14 1.22-2.247 0-.938-.393-1.58-1.18-1.932-.442-.195-1.061-.298-1.855-.305h-4.565zm0-6.95v3.972h4.509c.802 0 1.457-.149 1.961-.447.501-.298.753-.825.753-1.579 0-.84-.331-1.394-.994-1.665-.575-.186-1.306-.28-2.193-.28h-4.036zm10.069-.592c.566.766.85 1.68.85 2.747 0 1.098-.284 1.983-.858 2.652-.32.373-.791.715-1.414 1.024.945.335 1.658.864 2.143 1.589.48.723.721 1.603.721 2.637 0 1.067-.275 2.025-.827 2.87a5.032 5.032 0 0 1-1.312 1.417c-.591.44-1.288.74-2.094.904-.806.163-1.677.242-2.62.242H10V16h8.959c2.261.032 3.86.671 4.805 1.918z" fill="#fff"/></svg>