<svg width="50" height="50" fill="none" xmlns="http://www.w3.org/2000/svg"><path fill-rule="evenodd" clip-rule="evenodd" d="M32.16 35.624c-.131-.773-.814-4.533-2.495-9.149 4.136-.661 7.719.473 7.984.56a12.813 12.813 0 0 1-5.49 8.59zM25 37.811a12.76 12.76 0 0 1-8.161-2.937c.17.138.288.224.288.224s2.455-5.354 10.052-8.002c.029-.01.059-.017.087-.026 1.803 4.683 2.545 8.605 2.736 9.725A12.769 12.769 0 0 1 25 37.811zM12.19 25c0-.136.006-.27.01-.404.227.006 6.556.148 13.152-1.825.367.718.718 1.45 1.039 2.178-.17.046-.337.097-.505.153-6.913 2.233-10.42 8.452-10.42 8.452s.006.006.006.008a12.76 12.76 0 0 1-3.283-8.562zm7.344-11.583c.171.228 2.54 3.44 4.758 7.38-6.151 1.635-11.49 1.57-11.828 1.564a12.814 12.814 0 0 1 7.07-8.944zm2.398-.853c0 .002-.002.003-.002.003s-.016.004-.039.007c.014-.003.026-.005.04-.01zm11.529 2.825c-.032.048-1.856 2.826-6.693 4.637a65.077 65.077 0 0 0-4.787-7.473c.968-.234 1.98-.361 3.02-.361 3.242 0 6.204 1.21 8.46 3.197zm4.346 9.484c-.185-.04-4.52-.974-8.922-.42-.092-.218-.182-.439-.277-.66a38.47 38.47 0 0 0-.852-1.858c5.06-2.066 7.113-5.034 7.137-5.07a12.76 12.76 0 0 1 2.914 8.008zm1.89-2.89a15.055 15.055 0 0 0-.877-2.821 14.824 14.824 0 0 0-1.383-2.547 14.984 14.984 0 0 0-4.05-4.05 14.953 14.953 0 0 0-2.547-1.384 15.03 15.03 0 0 0-8.86-.873 15.03 15.03 0 0 0-2.82.873 15.038 15.038 0 0 0-6.597 5.434A14.93 14.93 0 0 0 10 25a14.856 14.856 0 0 0 1.18 5.84c.374.889.841 1.75 1.383 2.55a15.282 15.282 0 0 0 1.83 2.22 15.023 15.023 0 0 0 4.768 3.212c.906.384 1.855.676 2.818.872.988.205 2.004.307 3.022.307 1.016 0 2.032-.102 3.02-.307a14.777 14.777 0 0 0 2.819-.873 14.938 14.938 0 0 0 2.547-1.383 15.222 15.222 0 0 0 2.22-1.829 15.166 15.166 0 0 0 1.83-2.219 14.98 14.98 0 0 0 2.26-5.367 15.176 15.176 0 0 0 0-6.04z" fill="#fff"/></svg>