<svg width="50" height="50" fill="none" xmlns="http://www.w3.org/2000/svg"><path fill-rule="evenodd" clip-rule="evenodd" d="M25 10c-8.284 0-15 6.885-15 15.38 0 6.795 4.297 12.56 10.26 14.594.75.14 1.023-.334 1.023-.742 0-.365-.013-1.332-.02-2.615-4.174.93-5.054-2.062-5.054-2.062-.681-1.776-1.665-2.25-1.665-2.25-1.362-.954.103-.935.103-.935 1.505.109 2.297 1.585 2.297 1.585 1.339 2.35 3.511 1.672 4.366 1.278.136-.994.524-1.672.953-2.056-3.331-.389-6.833-1.707-6.833-7.6 0-1.68.584-3.053 1.544-4.128-.155-.39-.67-1.953.146-4.07 0 0 1.26-.414 4.125 1.576a14.072 14.072 0 0 1 3.756-.518c1.274.007 2.557.177 3.756.518 2.863-1.99 4.12-1.576 4.12-1.576.818 2.117.304 3.68.149 4.07.962 1.075 1.542 2.448 1.542 4.127 0 5.908-3.507 7.209-6.848 7.59.538.474 1.018 1.412 1.018 2.847 0 2.056-.019 3.715-.019 4.22 0 .41.27.89 1.031.739C35.706 37.934 40 32.172 40 25.38 40 16.885 33.284 10 25 10" fill="#fff"/></svg>