<svg width="50" height="50" fill="none" xmlns="http://www.w3.org/2000/svg"><path fill-rule="evenodd" clip-rule="evenodd" d="M36.698 23.807v-3.292H34.34v3.292h-3.397v2.351h3.397v3.386h2.358v-3.386H40v-2.351h-3.302zm-17.17-.188v3.762s3.661-.005 5.152-.005c-.808 2.44-2.063 3.768-5.152 3.768-3.126 0-5.566-2.527-5.566-5.644s2.44-5.644 5.566-5.644c1.653 0 2.72.58 3.7 1.387.784-.781.718-.893 2.712-2.77A9.51 9.51 0 0 0 19.528 16C14.266 16 10 20.253 10 25.5s4.266 9.5 9.528 9.5c7.866 0 9.789-6.829 9.151-11.381h-9.15z" fill="#fff"/></svg>