<svg width="50" height="50" fill="none" xmlns="http://www.w3.org/2000/svg"><path d="M38.867 11.133c-.755-.755-1.66-1.133-2.714-1.133H13.848c-1.055 0-1.96.378-2.715 1.133-.755.755-1.133 1.66-1.133 2.715v22.304c0 1.055.377 1.96 1.133 2.715.755.755 1.66 1.133 2.715 1.133h22.305c1.054 0 1.96-.378 2.714-1.133.756-.755 1.133-1.66 1.133-2.715V13.848c0-1.055-.377-1.96-1.133-2.715zM20.773 20.81c1.178-1.139 2.594-1.709 4.248-1.709 1.666 0 3.089.57 4.267 1.71 1.179 1.139 1.768 2.516 1.768 4.13 0 1.615-.59 2.992-1.768 4.13-1.178 1.14-2.6 1.71-4.267 1.71-1.654 0-3.07-.57-4.248-1.71-1.179-1.138-1.768-2.515-1.768-4.13 0-1.614.59-2.991 1.768-4.13zm15.83 14.542c0 .338-.117.621-.352.85a1.164 1.164 0 0 1-.84.34H14.532c-.339 0-.622-.113-.85-.34a1.152 1.152 0 0 1-.342-.85V22.695h2.754a8.41 8.41 0 0 0-.39 2.559c0 2.5.91 4.632 2.734 6.397 1.823 1.764 4.017 2.646 6.582 2.646 1.693 0 3.255-.404 4.688-1.21a9.12 9.12 0 0 0 3.398-3.292 8.654 8.654 0 0 0 1.25-4.541c0-.885-.13-1.738-.39-2.559h2.636v12.657zm0-17.442a1.3 1.3 0 0 1-.39.957 1.3 1.3 0 0 1-.958.39h-3.398c-.378 0-.697-.13-.957-.39s-.39-.58-.39-.957v-3.222c0-.365.13-.68.39-.948.26-.267.58-.4.957-.4h3.398c.378 0 .697.133.957.4s.391.583.391.948v3.222z" fill="#fff"/></svg>