<svg width="50" height="50" fill="none" xmlns="http://www.w3.org/2000/svg"><path fill-rule="evenodd" clip-rule="evenodd" d="M40 39h-6.63v-9.492c0-2.484-1.038-4.18-3.318-4.18-1.745 0-2.715 1.145-3.166 2.248-.17.395-.143.947-.143 1.498V39h-6.569s.085-16.813 0-18.342h6.569v2.879c.388-1.259 2.487-3.055 5.836-3.055 4.156 0 7.421 2.638 7.421 8.32V39zM13.531 18.364h-.042c-2.117 0-3.489-1.402-3.489-3.18C10 13.374 11.413 12 13.572 12c2.157 0 3.483 1.37 3.526 3.18 0 1.777-1.369 3.184-3.567 3.184zm-2.774 2.294h5.847V39h-5.847V20.658z" fill="#fff"/></svg>