<svg width="25" height="18" viewBox="0 0 25 18" fill="none" xmlns="http://www.w3.org/2000/svg">
<path fill-rule="evenodd" clip-rule="evenodd" d="M1.25 2.57141H23.75C24.5 2.57141 25 2.05713 25 1.28571C25 0.514282 24.5 0 23.75 0H1.25C0.5 0 0 0.514282 0 1.28571C0 2.05713 0.5 2.57141 1.25 2.57141ZM25 9C25 9.77142 24.5 10.2857 23.75 10.2857H1.25C0.5 10.2857 0 9.77142 0 9C0 8.22858 0.5 7.71429 1.25 7.71429H23.75C24.5 7.71429 25 8.22858 25 9ZM1.25 15.4285H23.75C24.5 15.4285 25 15.9428 25 16.7142C25 17.4857 24.5 17.9999 23.75 17.9999H1.25C0.5 17.9999 0 17.4857 0 16.7142C0 15.9428 0.5 15.4285 1.25 15.4285Z" fill="black"/>
</svg>
