<svg width="50" height="50" fill="none" xmlns="http://www.w3.org/2000/svg"><path fill-rule="evenodd" clip-rule="evenodd" d="M40 15.96c-1.102.502-2.29.841-3.534.993a6.297 6.297 0 0 0 2.706-3.49 12.124 12.124 0 0 1-3.91 1.529A6.07 6.07 0 0 0 30.77 13c-3.397 0-6.153 2.826-6.153 6.31 0 .496.053.976.159 1.438-5.116-.263-9.65-2.773-12.688-6.596a6.426 6.426 0 0 0-.832 3.176 6.353 6.353 0 0 0 2.738 5.253 6.043 6.043 0 0 1-2.79-.787v.077c0 3.06 2.122 5.61 4.94 6.189a5.868 5.868 0 0 1-1.622.222c-.396 0-.784-.038-1.159-.112.784 2.506 3.055 4.332 5.75 4.38a12.153 12.153 0 0 1-7.644 2.704c-.497 0-.988-.03-1.469-.087A17.136 17.136 0 0 0 19.435 38c11.322 0 17.512-9.615 17.512-17.956 0-.274-.006-.549-.016-.818 1.203-.89 2.247-2 3.069-3.266" fill="#fff"/></svg>