<svg width="50" height="50" fill="none" xmlns="http://www.w3.org/2000/svg"><path fill-rule="evenodd" clip-rule="evenodd" d="M21.902 29.373v-8.39l8.105 4.21-8.105 4.18zM39.7 19.53s-.293-2.057-1.193-2.963c-1.14-1.19-2.42-1.196-3.005-1.265C31.304 15 25.007 15 25.007 15h-.014s-6.297 0-10.495.302c-.587.07-1.865.075-3.006 1.265-.9.906-1.192 2.963-1.192 2.963s-.3 2.416-.3 4.832v2.266c0 2.416.3 4.832.3 4.832s.292 2.057 1.192 2.963c1.141 1.19 2.64 1.152 3.308 1.277 2.4.23 10.2.3 10.2.3s6.304-.01 10.502-.312c.586-.07 1.865-.075 3.005-1.265.9-.906 1.193-2.963 1.193-2.963s.3-2.416.3-4.832v-2.266c0-2.415-.3-4.832-.3-4.832z" fill="#fff"/></svg>