<svg viewBox="0 0 674 105" fill="none" xmlns="http://www.w3.org/2000/svg">
<path d="M5.18339 70.5091C1.28339 70.4492 -0.626605 68.3892 0.183395 64.6392C2.18339 55.5192 4.3634 46.4291 6.5334 37.3391C9.0434 26.8391 11.6334 16.3391 14.1934 5.85915C14.3777 5.1309 14.6014 4.41318 14.8634 3.70915C16.0234 0.509149 18.3934 -0.640851 21.7734 0.339149C24.5934 1.14915 25.8634 3.33915 25.1134 6.51915C22.2734 18.5991 19.3867 30.6691 16.4534 42.7291C14.6234 50.4391 12.7434 58.1692 10.7934 65.8792C9.8834 69.4091 8.37339 70.5491 5.18339 70.5091Z" transform="translate(51.2205 11.7316)" fill="#FF7C41"/>
<path d="M45.4646 50.18C43.3346 49.27 41.3746 48.45 39.4646 47.6C26.7979 42.1067 14.1313 36.6233 1.4646 31.15C1.00682 31.0363 0.606538 30.7588 0.339382 30.37C0.0722251 29.9813 -0.0433071 29.5081 0.014606 29.04C0.104606 26.3 0.084606 23.54 0.014606 20.8C-0.0328315 20.4334 0.0532051 20.0619 0.256999 19.7535C0.460794 19.445 0.768746 19.2202 1.12461 19.12C15.4779 12.8867 29.8546 6.64333 44.2546 0.389999C44.5846 0.249999 44.9446 0.16 45.4546 0C45.4546 4.05 45.4546 8 45.3946 11.88C45.3946 12.31 44.6046 12.88 44.0546 13.12C34.7213 16.7733 25.3579 20.3967 15.9646 23.99C15.3146 24.24 14.6846 24.51 13.7246 24.9C14.5146 25.27 15.0546 25.55 15.6146 25.77C25.0946 29.53 34.6146 33.31 44.0746 37.02C44.5344 37.1278 44.9368 37.4047 45.2018 37.7957C45.4667 38.1866 45.5749 38.663 45.5046 39.13C45.4146 42.72 45.4646 46.33 45.4646 50.18Z" transform="translate(123.359 23.4707)" fill="#00D664"/>
<path d="M21.4312 52.3908C20.8312 51.9308 20.4312 51.5908 20.0012 51.2908C15.2012 48.0608 12.7712 43.3908 12.1112 37.7908C11.6912 34.2208 11.6112 30.6008 11.4312 27.0008C11.2812 24.1508 11.2712 21.2908 11.0812 18.4408C10.8512 14.8908 9.45119 13.4408 6.08119 12.9708C1.36119 12.3508 -0.868814 8.97075 0.311186 4.34075C0.545206 3.30988 1.08785 2.37481 1.8668 1.66018C2.64576 0.945543 3.62401 0.485287 4.67119 0.340753C14.6712 -1.51925 24.3612 4.34075 24.8612 15.3408C25.1412 21.3408 25.3112 27.4008 25.4712 33.4408C25.4261 35.6879 25.9644 37.9083 27.0335 39.8852C28.1027 41.8622 29.6661 43.5283 31.5712 44.7208C32.3412 45.2208 33.0812 45.7208 33.8712 46.2208C38.7412 48.9808 37.9812 56.6808 33.5512 58.6808C32.9444 59.0288 32.3569 59.4093 31.7912 59.8208C27.3712 62.4408 25.6012 66.4808 25.4712 71.4508C25.3012 77.4508 25.1212 83.5108 24.8712 89.5408C24.7633 93.516 23.1239 97.2958 20.2952 100.091C17.4666 102.886 13.6674 104.48 9.69119 104.541C7.71377 104.634 5.73382 104.421 3.82119 103.911C1.02119 103.091 -0.288811 100.411 0.111189 97.1808C0.511189 93.9508 2.22119 92.1808 5.11119 91.7108C9.72119 91.0108 10.8012 89.9608 11.1112 85.2708C11.4212 80.3808 11.5612 75.4808 11.7012 70.5808C11.9112 63.2108 14.2512 56.9708 20.7612 52.8408L21.4312 52.3908Z" transform="translate(78.5827)" fill="#FF7C41"/>
<path d="M45.5339 50.18C43.4039 49.27 41.4439 48.45 39.5339 47.6C26.8672 42.1067 14.2006 36.6233 1.53389 31.15C1.06123 31.0509 0.642906 30.7782 0.361502 30.3857C0.0800979 29.9932 -0.0439348 29.5095 0.0138897 29.03C0.10389 26.29 0.0838897 23.53 0.0138897 20.79C-0.0335477 20.4234 0.0524881 20.0519 0.256283 19.7435C0.460077 19.435 0.768029 19.2102 1.12389 19.11C15.5306 12.8833 29.9306 6.64333 44.3239 0.390001C44.6539 0.250001 45.0139 0.16 45.5239 0C45.5239 4.05 45.5239 8 45.4639 11.88C45.4639 12.31 44.6739 12.88 44.1239 13.12C34.7706 16.7667 25.4006 20.39 16.0139 23.99C15.3639 24.24 14.7339 24.51 13.7739 24.9C14.5639 25.27 15.1039 25.55 15.6639 25.77C25.1439 29.53 34.6639 33.31 44.1239 37.02C44.5837 37.1278 44.9861 37.4047 45.2511 37.7957C45.516 38.1866 45.6241 38.663 45.5539 39.13C45.4939 42.69 45.5339 46.33 45.5339 50.18Z" transform="translate(0 23.2807)" fill="#FF7C41"/>
<path d="M48.947 36.5138C47.9214 36.22 46.8258 36.2895 45.8455 36.7104C44.8652 37.1313 44.0603 37.8778 43.567 38.8238C42.927 39.9938 42.467 41.2638 41.937 42.4938C39.397 48.4938 34.937 51.6638 28.377 51.7638C22.147 51.8538 17.477 49.3038 14.637 43.6538C13.3455 40.9685 12.5882 38.0579 12.407 35.0838C11.947 29.4438 12.147 23.8438 14.527 18.5938C16.787 13.5938 20.527 10.3238 26.117 9.59376C32.117 8.80376 36.987 10.7138 40.417 15.8138C41.587 17.5638 42.577 19.4338 43.767 21.1638C44.3592 21.8956 45.1459 22.4454 46.0368 22.7499C46.9276 23.0544 47.8863 23.1012 48.8025 22.885C49.7188 22.6687 50.5554 22.1981 51.216 21.5274C51.8767 20.8568 52.3346 20.0132 52.537 19.0938C52.7392 17.8272 52.671 16.5321 52.337 15.2938C50.967 10.2938 47.657 6.80376 43.337 4.13376C37.337 0.363762 30.707 -0.636238 23.767 0.363762C15.137 1.64376 8.34698 5.93376 4.23698 13.6938C-1.18302 23.9338 -1.20302 34.5938 3.03698 45.2138C4.14471 48.2451 5.85665 51.0198 8.06896 53.3697C10.2813 55.7195 12.9479 57.5955 15.907 58.8838C19.6746 60.4393 23.7214 61.2051 27.797 61.1338C36.427 61.2438 43.047 58.6738 47.797 53.3638C50.897 49.8738 53.017 45.9038 52.877 41.0538C52.8019 39.9735 52.3781 38.9468 51.6694 38.1281C50.9607 37.3094 50.0053 36.7429 48.947 36.5138Z" transform="translate(205.607 21.607)" fill="#424243"/>
<path d="M48.6784 36.4414C47.6222 36.1822 46.5085 36.3013 45.531 36.7782C44.5536 37.255 43.7742 38.0594 43.3284 39.0514C42.9884 39.6814 42.7784 40.3714 42.4384 41.0514C41.555 43.0017 40.5219 44.8807 39.3484 46.6715C36.6284 50.3015 32.6884 51.7415 28.2884 51.8115C23.2384 51.8915 18.8784 50.2514 15.8384 45.9614C13.7432 42.8524 12.5112 39.2427 12.2684 35.5014C11.7184 29.8014 11.8984 24.1714 14.1584 18.8414C16.5284 13.2514 20.7584 9.84145 26.9284 9.33145C33.0984 8.82145 37.6184 11.2614 40.7884 16.4714C41.7084 17.9814 42.5784 19.5314 43.5984 20.9714C44.2332 21.8879 45.1736 22.5482 46.2512 22.8341C47.3287 23.12 48.4728 23.0127 49.4784 22.5314C50.4887 22.077 51.3258 21.3094 51.8661 20.3423C52.4063 19.3753 52.621 18.26 52.4784 17.1614C51.6284 11.1614 47.9784 7.16145 43.1084 4.11145C36.9284 0.211447 30.1084 -0.708554 23.1084 0.491446C14.0284 2.04145 7.17843 6.90145 3.31843 15.3714C-0.931572 24.7014 -0.971578 34.3714 2.46842 43.9014C4.71842 50.1714 8.65841 55.2614 14.8284 58.2614C18.8903 60.1687 23.3428 61.0968 27.8284 60.9714C35.2684 61.0414 41.6184 59.2215 46.6984 54.1315C50.2184 50.6115 52.6084 46.4915 52.6984 41.3414C52.6977 40.186 52.2968 39.0664 51.564 38.1731C50.8311 37.2798 49.8115 36.6679 48.6784 36.4414Z" transform="translate(417.926 21.7093)" fill="#FF7C41"/>
<path d="M42.9557 4.41047C42.4657 1.41047 40.8657 0.030472 38.0557 0.00047197C35.2457 -0.029528 33.6957 1.37047 33.1557 4.25047C32.9717 5.28692 32.8813 6.33782 32.8857 7.39047C32.8857 12.0005 32.8857 16.6005 32.8857 21.2105C32.8857 21.7005 32.8857 22.2105 32.8857 23.0105C32.2557 22.4705 31.8857 22.2205 31.6157 21.9305C29.7288 19.972 27.4213 18.4682 24.8677 17.5327C22.3141 16.5972 19.5812 16.2545 16.8757 16.5305C14.4735 16.6452 12.125 17.2806 9.99258 18.3925C7.86018 19.5045 5.99487 21.0665 4.52569 22.9705C1.93904 26.4014 0.425486 30.521 0.175686 34.8105C-0.394314 41.1905 0.325692 47.3605 3.77569 52.9405C4.93527 54.9286 6.49236 56.6562 8.3497 58.0155C10.207 59.3747 12.3247 60.3363 14.5705 60.8403C16.8162 61.3442 19.1417 61.3797 21.4017 60.9444C23.6618 60.5091 25.8078 59.6125 27.7057 58.3105C29.4858 56.9959 31.1918 55.5837 32.8157 54.0805C32.8157 54.7805 32.8157 55.3105 32.8957 55.8305C33.0857 58.8305 34.9457 60.9905 37.5357 61.1405C40.6057 61.3105 42.4257 59.8105 43.0057 56.5505C43.1307 55.8106 43.1876 55.0608 43.1757 54.3105C43.1757 38.5171 43.1757 22.7271 43.1757 6.94047C43.1702 6.09261 43.0966 5.24656 42.9557 4.41047ZM30.4757 47.5605C29.6897 49.1181 28.4962 50.4335 27.0221 51.3668C25.548 52.3 23.8484 52.8161 22.1043 52.8603C20.3602 52.9044 18.6367 52.4748 17.1173 51.6173C15.5979 50.7598 14.3394 49.5064 13.4757 47.9905C11.7893 45.1723 10.8987 41.9496 10.8987 38.6655C10.8987 35.3813 11.7893 32.1586 13.4757 29.3405C17.3157 22.5005 26.5657 22.9605 30.3957 29.9605C31.7647 32.6942 32.4672 35.7132 32.4457 38.7705C32.4804 41.8137 31.8059 44.8232 30.4757 47.5605Z" transform="translate(315.838 21.6603)" fill="#424243"/>
<path d="M40.0219 25.9272C40.1719 21.6172 40.1619 17.2972 39.8919 12.9972C39.6219 8.69718 38.2818 4.88719 34.2918 2.57719C31.8883 1.26988 29.2314 0.495654 26.5019 0.307185C20.7219 -0.282815 15.0119 -0.202816 9.56187 2.17718C6.08187 3.69718 3.40188 6.00718 2.26188 9.79718C1.49188 12.3672 2.26186 14.5672 4.46186 15.4972C6.20186 16.2372 8.61187 16.4972 10.1219 13.7772C10.9995 12.1882 12.1504 10.7664 13.5219 9.57719C16.7119 6.90719 20.5219 7.27718 24.3619 7.72718C25.4703 7.84118 26.5134 8.30622 27.339 9.05451C28.1647 9.80281 28.7298 10.7953 28.9519 11.8872C29.2419 12.8872 29.2619 13.9672 29.4719 14.9972C29.6419 15.8472 29.2919 16.2372 28.4719 16.4272C26.0119 17.0372 23.5719 17.7172 21.1019 18.2972C16.9119 19.2972 12.6619 20.0072 8.53187 21.2072C4.40187 22.4072 1.21188 25.2672 0.291879 29.7572C-1.38812 37.9372 4.39188 43.9772 12.2919 44.6372C17.6958 45.0996 23.0837 43.582 27.4519 40.3672C28.3019 39.7672 29.1919 39.2372 30.1419 38.6172C30.7619 39.4272 31.2919 40.1572 31.8519 40.8672C32.3854 41.5833 32.9562 42.2709 33.5619 42.9272C35.3919 44.7972 37.4519 45.1572 39.5619 44.0172C41.6719 42.8772 42.5619 41.1872 41.7419 38.4672C40.5066 34.405 39.926 30.172 40.0219 25.9272ZM28.2619 32.0772C26.1219 36.5672 19.0019 39.1472 14.4919 37.0772C13.4512 36.6652 12.5535 35.9585 11.9087 35.0436C11.2639 34.1288 10.9001 33.0457 10.8619 31.9272C10.7096 30.8422 10.9292 29.7377 11.4848 28.7934C12.0405 27.8492 12.8994 27.1209 13.9219 26.7272C16.2485 25.8851 18.6226 25.1806 21.0319 24.6172C23.4319 23.9772 25.8519 23.4072 28.2719 22.8372C28.7254 22.7656 29.1829 22.7222 29.6419 22.7072C29.6319 26.0672 29.6419 29.1872 28.2619 32.0772Z" transform="translate(478.452 38.0436)" fill="#FF7C41"/>
<path d="M21.1736 25.1387C26.1136 25.0787 31.0536 25.1387 35.9736 24.8387C40.2436 24.6087 42.1036 22.5487 41.9736 18.3587C41.6636 11.1987 38.3836 5.74871 31.9736 2.35871C27.6336 0.0287077 22.9236 -0.351291 18.1336 0.258709C10.5836 1.25871 4.9136 4.93871 2.0236 12.1787C-0.57798 18.55 -0.674417 25.6693 1.75361 32.1087C2.59673 34.5919 3.98165 36.8564 5.80808 38.7382C7.63452 40.6199 9.85671 42.0719 12.3136 42.9887C14.4006 43.7963 16.5811 44.3373 18.8036 44.5987C24.3736 45.2287 29.8036 44.7087 34.8036 41.7787C37.4936 40.1887 39.8036 38.1887 40.8936 35.1387C41.6336 33.1387 41.2736 31.4287 39.8936 30.4787C39.0963 29.9819 38.1582 29.7598 37.2228 29.8465C36.2874 29.9332 35.406 30.3238 34.7136 30.9587C33.9636 31.6287 33.2836 32.3787 32.4936 32.9587C31.1481 34.1102 29.7136 35.1535 28.2036 36.0787C24.3136 38.2287 20.2736 38.3687 16.4736 35.9687C12.6736 33.5687 11.4736 29.6787 11.1936 25.1187C14.6636 25.1387 17.9136 25.1787 21.1736 25.1387ZM21.3636 7.66871C27.3136 7.66871 31.1136 11.9487 31.2936 18.8887H11.4036C11.6236 12.0687 15.5636 7.63871 21.3536 7.66871H21.3636Z" transform="translate(368.21 37.982)" fill="#424243"/>
<path d="M36.1121 4.58701C30.8521 0.407006 24.7621 -0.512992 18.3221 0.237008C15.6628 0.465739 13.0785 1.23573 10.7277 2.49968C8.37692 3.76364 6.30935 5.49486 4.65204 7.58701C2.03103 10.9875 0.469421 15.0846 0.162054 19.367C-0.377946 25.087 0.352048 30.597 3.56205 35.497C7.48205 41.497 13.2221 44.297 20.2621 44.667C25.8221 44.967 31.0721 43.987 35.6021 40.537C41.6021 35.987 43.7521 29.647 43.7321 22.397C43.7321 21.537 43.8021 20.667 43.7321 19.807C43.1621 13.747 41.0421 8.47701 36.1121 4.58701ZM32.8821 22.407C32.9953 25.5799 32.2674 28.7263 30.7721 31.527C28.5521 35.417 25.1121 36.997 20.7721 36.617C18.8616 36.4901 17.0336 35.7907 15.5263 34.6099C14.0191 33.4291 12.9025 31.8216 12.3221 29.997C11.2863 27.4291 10.7848 24.6771 10.8485 21.9089C10.9121 19.1407 11.5394 16.4146 12.6921 13.897C14.5921 9.68701 18.0321 7.80701 22.6421 8.03701C24.5794 8.05712 26.4621 8.68181 28.0273 9.82383C29.5924 10.9658 30.7617 12.5682 31.372 14.407C32.1847 16.9845 32.8228 19.6138 33.2821 22.277L32.8821 22.407Z" transform="translate(265.972 38.0737)" fill="#424243"/>
<path d="M31.8075 2.08481C27.1243 0.0280659 21.918 -0.524007 16.9075 0.504811C12.3146 1.20361 8.12816 3.53652 5.11754 7.07481C2.12698 10.6788 0.374099 15.1487 0.117541 19.8248C-0.412459 26.4448 0.767522 32.6748 5.34752 37.7648C11.1375 44.1848 18.5875 45.5248 26.7375 44.2048C31.3285 43.522 35.515 41.1943 38.5176 37.6548C42.2876 33.2648 43.7076 28.0548 43.8376 22.3448C43.5776 20.3448 43.4275 18.3448 43.0275 16.3448C42.4754 13.2281 41.1624 10.2958 39.2052 7.80827C37.2479 5.3207 34.7069 3.35473 31.8075 2.08481ZM32.8075 22.3448C32.989 25.6793 32.2042 28.9953 30.5475 31.8948C29.6423 33.378 28.3727 34.605 26.8597 35.4593C25.3466 36.3136 23.6402 36.7667 21.9026 36.7758C20.1651 36.7848 18.454 36.3493 16.9322 35.5108C15.4103 34.6722 14.1282 33.4585 13.2076 31.9848C10.6576 27.7348 10.3576 23.0548 11.2076 18.2448C11.8376 14.7348 13.0876 11.5848 16.2076 9.55481C20.4376 6.77481 27.9275 7.13481 31.1175 13.6748C32.3849 16.3825 32.9719 19.3587 32.8276 22.3448H32.8075Z" transform="translate(595.706 38.0759)" fill="#FF7C41"/>
<path d="M29.3599 53.2222C28.8799 51.3222 27.08 50.4922 24.45 50.9022C23.1818 51.1382 21.8986 51.2852 20.6099 51.3422C19.8052 51.3896 19.0137 51.1216 18.4032 50.5952C17.7928 50.0687 17.4114 49.3252 17.34 48.5222C17.1632 47.4811 17.0662 46.4281 17.0499 45.3722C17.0499 38.6122 17.0499 31.8522 17.0499 25.0922C17.0499 24.0322 17.4 23.6522 18.45 23.6222C19.9334 23.6001 21.4135 23.4765 22.88 23.2522C23.7263 23.1661 24.5133 22.778 25.0969 22.1591C25.6805 21.5403 26.0218 20.7319 26.0582 19.882C26.0946 19.0321 25.8237 18.1975 25.2952 17.531C24.7666 16.8644 24.0158 16.4105 23.18 16.2522C21.7287 15.9651 20.2472 15.861 18.77 15.9422C17.46 15.9422 17.0399 15.6022 17.0399 14.2622C17.0399 10.9622 17.0399 7.65222 16.74 4.36222C16.6155 3.10804 16.0068 1.95186 15.0432 1.13951C14.0796 0.327167 12.8371 -0.0772602 11.58 0.0122238C10.3075 0.00961533 9.08191 0.492251 8.15291 1.3618C7.22391 2.23134 6.66141 3.42237 6.57998 4.69222C6.41998 7.13222 6.38997 9.57222 6.31997 12.0222C6.31997 13.2522 6.31997 14.4922 6.31997 15.9222C5.39997 15.9222 4.77999 15.9222 4.15999 15.9222C1.15999 16.1922 -0.550007 18.3222 0.159993 20.9222C0.609993 22.4722 2.09994 23.4122 4.35994 23.5522C6.26994 23.6722 6.26998 23.6722 6.26998 25.6022C6.26998 31.5022 6.18998 37.4022 6.26998 43.2922C6.3377 46.3507 6.58478 49.4026 7.00997 52.4322C7.17303 53.9658 7.81245 55.4098 8.8384 56.5613C9.86435 57.7128 11.2252 58.514 12.7299 58.8522C17.2358 60.1108 22.0225 59.929 26.4199 58.3322C27.4516 57.9896 28.3212 57.2795 28.8634 56.3373C29.4055 55.395 29.5822 54.2863 29.3599 53.2222Z" transform="translate(643.884 23.1185)" fill="#FF7C41"/>
<path d="M23.971 0.641875C19.791 -0.648125 15.391 -0.208124 12.601 3.95188C12.051 4.77188 11.401 5.53188 10.511 6.70188C10.371 5.82188 10.281 5.37188 10.221 4.91188C9.81099 1.78188 8.28099 0.201875 5.54099 0.0518748C2.80099 -0.0981252 1.05095 1.20188 0.310951 4.27188C0.092817 5.25666 -0.0111989 6.26329 0.00095378 7.27188C0.00095378 15.7119 0.00095378 24.1552 0.00095378 32.6019C0.00095378 34.7119 0.00095378 36.8219 0.00095378 38.9319C0.0709538 41.9319 2.001 44.3419 4.491 44.6019C7.64101 44.9319 9.701 43.4219 10.491 40.1519C10.6828 39.312 10.78 38.4534 10.781 37.5919C10.781 33.2219 10.661 28.8519 10.861 24.5019C11.012 21.3996 11.4031 18.3137 12.031 15.2719C12.811 11.4319 14.811 9.47188 18.241 9.38188C20.3325 9.49444 22.4018 9.86732 24.401 10.4919C25.3466 10.7724 26.3589 10.7278 27.2762 10.3652C28.1934 10.0027 28.9627 9.34308 29.461 8.49188C29.9552 7.68838 30.1565 6.73874 30.0307 5.80384C29.905 4.86893 29.4599 4.00623 28.771 3.36188C27.3564 2.16119 25.7279 1.23836 23.971 0.641875Z" transform="translate(565.173 38.1089)" fill="#FF7C41"/>
<path d="M28.195 2.63532C25.7929 0.84722 22.8584 -0.0792956 19.865 0.00532198C18.4698 -0.019102 17.0903 0.302364 15.8496 0.941018C14.609 1.57967 13.5458 2.51563 12.755 3.66532L10.535 6.66532C10.285 5.45532 10.155 4.56532 9.905 3.66532C9.145 1.02532 7.78499 0.0053203 5.13499 0.0153203C4.04351 -0.0683888 2.95993 0.256843 2.09495 0.927762C1.22996 1.59868 0.645405 2.56733 0.454993 3.64532C0.191728 4.51524 0.0470963 5.41671 0.025 6.32532C-0.00833333 16.2053 -0.00833333 26.0887 0.025 35.9753C0.025 37.1253 0.0249878 38.2853 0.0749878 39.4253C0.0969552 40.6815 0.567813 41.8883 1.40238 42.8274C2.23695 43.7665 3.38009 44.3759 4.62498 44.5453C7.75498 44.7453 9.84499 43.2553 10.455 40.2453C10.6841 39.0186 10.798 37.7732 10.795 36.5253C10.855 31.9653 10.715 27.4053 10.925 22.8553C11.0532 20.1352 11.4552 17.4349 12.125 14.7953C13.215 10.4853 15.695 8.89532 20.075 9.39532C21.4324 9.58584 22.7707 9.89366 24.075 10.3153C25.0595 10.7147 26.1578 10.7309 27.1536 10.3607C28.1494 9.99053 28.9705 9.2608 29.455 8.31532C29.9453 7.3713 30.0878 6.28483 29.8574 5.24631C29.627 4.20779 29.0385 3.28347 28.195 2.63532Z" transform="translate(529.989 38.1454)" fill="#FF7C41"/>
</svg>