<svg width="207" height="32" fill="none" xmlns="http://www.w3.org/2000/svg"><path d="M17.262 25.169c-1.194-.018-1.778-.649-1.53-1.797.612-2.79 1.279-5.573 1.943-8.354.768-3.214 1.56-6.427 2.344-9.635.057-.222.125-.442.205-.658.355-.979 1.08-1.33 2.115-1.03.863.247 1.252.917 1.022 1.89-.87 3.697-1.753 7.391-2.65 11.082a497.72 497.72 0 0 1-1.732 7.085c-.279 1.08-.741 1.43-1.717 1.417z" fill="#FF834B"/><path d="M51.667 22.54c-.652-.278-1.252-.53-1.837-.79-3.876-1.68-7.752-3.359-11.629-5.034a.591.591 0 0 1-.444-.646c.028-.838.022-1.683 0-2.521a.471.471 0 0 1 .34-.515l13.2-5.732c.1-.043.21-.07.367-.119 0 1.24 0 2.448-.019 3.636 0 .131-.242.306-.41.38a1196.514 1196.514 0 0 1-8.596 3.326c-.2.076-.392.159-.686.278.242.114.407.2.578.267 2.902 1.15 5.815 2.307 8.71 3.442a.575.575 0 0 1 .438.646c-.028 1.099-.012 2.204-.012 3.382z" fill="#1AD370"/><path d="M30.608 16.034c-.184-.141-.306-.245-.438-.337-1.469-.989-2.212-2.418-2.414-4.132-.129-1.092-.153-2.2-.208-3.302-.046-.872-.05-1.747-.107-2.62-.07-1.086-.5-1.53-1.53-1.673-1.445-.19-2.128-1.225-1.767-2.642A1.591 1.591 0 0 1 25.48.104c3.06-.569 6.026 1.224 6.179 4.59.085 1.837.137 3.692.186 5.54a3.978 3.978 0 0 0 1.867 3.452c.236.153.462.306.704.46 1.49.844 1.258 3.2-.098 3.813a5.951 5.951 0 0 0-.538.348c-1.353.802-1.895 2.039-1.935 3.56-.052 1.836-.107 3.69-.183 5.536a4.719 4.719 0 0 1-4.646 4.59 5.893 5.893 0 0 1-1.796-.192c-.857-.251-1.258-1.071-1.136-2.06.123-.988.646-1.53 1.53-1.674 1.411-.214 1.742-.536 1.837-1.97.095-1.497.137-2.997.18-4.497.065-2.255.78-4.165 2.773-5.429l.205-.137zM13.935 22.482c-.652-.279-1.252-.53-1.836-.79-3.877-1.68-7.753-3.359-11.63-5.034a.59.59 0 0 1-.465-.649c.028-.838.022-1.683 0-2.522a.471.471 0 0 1 .34-.514c4.409-1.905 8.816-3.815 13.22-5.729.102-.043.212-.07.368-.12 0 1.24 0 2.45-.018 3.637 0 .131-.242.306-.41.379A1667.22 1667.22 0 0 1 4.9 14.467c-.2.076-.392.159-.686.278.242.113.407.2.579.266 2.901 1.151 5.814 2.308 8.71 3.443a.576.576 0 0 1 .437.646c-.018 1.09-.006 2.204-.006 3.382z" fill="#FF834B"/><path d="M77.903 17.787a1.416 1.416 0 0 0-1.646.707c-.196.358-.337.747-.5 1.123-.776 1.836-2.141 2.807-4.149 2.837-1.907.028-3.336-.753-4.205-2.482a7.036 7.036 0 0 1-.682-2.622c-.141-1.727-.08-3.44.648-5.047.692-1.53 1.837-2.531 3.547-2.754 1.837-.242 3.327.342 4.377 1.903.358.536.66 1.108 1.025 1.637a1.53 1.53 0 0 0 2.684-.633 2.782 2.782 0 0 0-.061-1.163c-.42-1.53-1.433-2.598-2.755-3.415-1.836-1.154-3.865-1.46-5.989-1.154-2.64.392-4.719 1.705-5.977 4.08-1.658 3.133-1.665 6.396-.367 9.646a7.292 7.292 0 0 0 3.939 4.183 9.117 9.117 0 0 0 3.638.689c2.642.034 4.668-.753 6.121-2.378.949-1.068 1.598-2.283 1.555-3.767a1.53 1.53 0 0 0-1.203-1.39z" fill="#545454"/><path d="M142.799 17.796a1.425 1.425 0 0 0-1.638.8c-.104.192-.168.403-.272.611-.27.597-.587 1.172-.946 1.72-.832 1.111-2.038 1.552-3.385 1.573-1.545.025-2.879-.477-3.81-1.79a6.477 6.477 0 0 1-1.092-3.201c-.169-1.745-.114-3.468.578-5.099.725-1.71 2.02-2.754 3.908-2.91 1.889-.156 3.272.59 4.242 2.185.282.462.548.936.86 1.377a1.434 1.434 0 0 0 1.799.477 1.574 1.574 0 0 0 .919-1.643c-.261-1.836-1.378-3.06-2.868-3.994-1.891-1.193-3.979-1.475-6.121-1.108-2.779.475-4.875 1.962-6.056 4.554-1.301 2.855-1.313 5.815-.26 8.731.688 1.92 1.894 3.477 3.782 4.395a8.785 8.785 0 0 0 3.979.83c2.277.02 4.22-.536 5.775-2.094 1.077-1.077 1.808-2.338 1.836-3.914a1.53 1.53 0 0 0-1.23-1.5z" fill="#FF834B"/><path d="M109.805 7.979c-.15-.918-.64-1.34-1.5-1.35-.86-.01-1.334.42-1.5 1.3a5.337 5.337 0 0 0-.082.962v4.78c-.193-.165-.306-.242-.389-.33a5.49 5.49 0 0 0-4.511-1.653 5.08 5.08 0 0 0-3.78 1.97 6.663 6.663 0 0 0-1.33 3.624c-.175 1.953.045 3.841 1.101 5.549a5.123 5.123 0 0 0 7.323 1.643 18.32 18.32 0 0 0 1.564-1.294c0 .214 0 .376.025.535.058.918.627 1.58 1.42 1.625.939.052 1.496-.407 1.674-1.404.038-.227.056-.456.052-.686V8.753a4.9 4.9 0 0 0-.067-.774zm-3.82 13.205a2.95 2.95 0 0 1-4.088 1.242 2.95 2.95 0 0 1-1.114-1.11 5.55 5.55 0 0 1 0-5.708c1.175-2.093 4.006-1.952 5.178.19.419.836.634 1.76.627 2.696a5.994 5.994 0 0 1-.603 2.69z" fill="#545454"/><path d="M158.673 19.578a40.482 40.482 0 0 0-.04-3.958c-.082-1.315-.492-2.481-1.714-3.188a5.824 5.824 0 0 0-2.384-.695c-1.769-.18-3.516-.156-5.184.572-1.065.465-1.885 1.172-2.234 2.332-.236.787 0 1.46.673 1.745.533.226 1.27.306 1.732-.527a4.728 4.728 0 0 1 1.041-1.285c.976-.817 2.142-.704 3.317-.566a1.602 1.602 0 0 1 1.405 1.273c.089.306.095.636.159.952.052.26-.055.379-.306.437-.753.187-1.499.395-2.255.572-1.283.306-2.583.524-3.847.891-1.264.367-2.24 1.242-2.522 2.617-.514 2.503 1.255 4.352 3.673 4.553a6.843 6.843 0 0 0 4.639-1.306c.26-.184.533-.346.823-.536.19.248.352.471.524.689.163.219.338.43.523.63.56.572 1.191.683 1.836.334.646-.35.918-.866.667-1.699a12.252 12.252 0 0 1-.526-3.837zm-3.599 1.882c-.655 1.374-2.834 2.163-4.214 1.53a1.761 1.761 0 0 1-1.111-1.576 1.482 1.482 0 0 1 .936-1.592 19.337 19.337 0 0 1 2.176-.645c.735-.196 1.475-.37 2.216-.545.139-.022.279-.035.419-.04-.003 1.028 0 1.983-.422 2.868z" fill="#FF834B"/><path d="M119.166 19.317c1.512-.018 3.024 0 4.53-.091 1.306-.07 1.876-.701 1.836-1.984-.095-2.19-1.099-3.859-3.06-4.896-1.329-.713-2.77-.83-4.236-.643-2.311.306-4.046 1.432-4.93 3.648a8.347 8.347 0 0 0-.083 6.1 5.41 5.41 0 0 0 3.232 3.33 8.14 8.14 0 0 0 1.986.492c1.705.193 3.366.034 4.897-.863.823-.487 1.53-1.099 1.863-2.032.227-.612.117-1.136-.306-1.426a1.316 1.316 0 0 0-1.585.146c-.229.206-.438.435-.679.613-.412.352-.851.671-1.313.954-1.191.658-2.427.701-3.59-.033-1.163-.735-1.53-1.925-1.616-3.32 1.062.005 2.057.018 3.054.005zm.058-5.346c1.821 0 2.984 1.31 3.039 3.434h-6.087c.068-2.088 1.273-3.443 3.045-3.434h.003zM92.45 13.056c-1.61-1.28-3.474-1.561-5.445-1.331a5.992 5.992 0 0 0-4.184 2.249 6.69 6.69 0 0 0-1.374 3.605c-.165 1.75.058 3.437 1.04 4.936 1.2 1.837 2.957 2.694 5.112 2.807 1.701.092 3.308-.208 4.694-1.264 1.836-1.393 2.494-3.333 2.488-5.552 0-.263.022-.53 0-.792-.174-1.855-.823-3.468-2.332-4.658zm-.99 5.453a5.51 5.51 0 0 1-.645 2.791c-.68 1.191-1.732 1.674-3.06 1.558a2.917 2.917 0 0 1-2.586-2.026 6.235 6.235 0 0 1 .113-4.927c.581-1.288 1.634-1.864 3.045-1.793a2.847 2.847 0 0 1 2.672 1.95c.248.788.444 1.593.584 2.408l-.122.04z" fill="#545454"/><path d="M192.043 12.29a7.559 7.559 0 0 0-4.56-.483 5.906 5.906 0 0 0-3.608 2.01 6.688 6.688 0 0 0-1.53 3.903c-.162 2.026.199 3.932 1.601 5.49 1.772 1.965 4.052 2.375 6.546 1.971a5.858 5.858 0 0 0 3.605-2.005c1.154-1.343 1.588-2.938 1.628-4.685-.08-.612-.125-1.224-.248-1.836a5.886 5.886 0 0 0-3.434-4.364zm.306 6.201a5.305 5.305 0 0 1-.691 2.923 3.12 3.12 0 0 1-5.307.027c-.78-1.3-.872-2.733-.612-4.205.193-1.074.575-2.038 1.53-2.66 1.295-.85 3.587-.74 4.563 1.262a5.62 5.62 0 0 1 .524 2.653h-.007zM206.038 23.363c-.146-.581-.697-.835-1.502-.71a8.468 8.468 0 0 1-1.175.135.95.95 0 0 1-1.001-.863 6.358 6.358 0 0 1-.089-.964v-6.207c0-.324.107-.44.429-.45a9.922 9.922 0 0 0 1.355-.113 1.085 1.085 0 0 0 .74-1.75 1.085 1.085 0 0 0-.648-.392 5.412 5.412 0 0 0-1.349-.095c-.401 0-.53-.104-.53-.514 0-1.01 0-2.023-.092-3.03a1.48 1.48 0 0 0-1.579-1.331 1.533 1.533 0 0 0-1.53 1.432c-.049.747-.058 1.494-.08 2.243v1.194h-.661c-.918.083-1.441.734-1.224 1.53.138.475.594.762 1.286.805.584.037.584.037.584.627 0 1.806-.024 3.612 0 5.414.021.936.096 1.87.227 2.797a2.251 2.251 0 0 0 1.75 1.965 6.866 6.866 0 0 0 4.19-.159 1.355 1.355 0 0 0 .899-1.564zM180.301 11.86c-1.279-.396-2.626-.26-3.48 1.012-.168.251-.367.484-.64.842-.042-.27-.07-.407-.088-.548-.126-.958-.594-1.441-1.433-1.487-.838-.046-1.374.352-1.6 1.291-.067.301-.099.61-.095.918v9.689c.021.918.612 1.656 1.374 1.736.964.1 1.595-.361 1.836-1.362.059-.257.089-.52.089-.784 0-1.337-.037-2.674.025-4.006.046-.95.166-1.894.358-2.824.238-1.176.85-1.775 1.9-1.803.64.034 1.274.149 1.885.34a1.35 1.35 0 0 0 1.549-.612 1.25 1.25 0 0 0-.211-1.57 4.521 4.521 0 0 0-1.469-.833zM170.826 12.48a4.08 4.08 0 0 0-2.55-.804 2.588 2.588 0 0 0-2.176 1.12l-.679.918c-.077-.37-.116-.643-.193-.918-.233-.808-.649-1.12-1.46-1.117a1.35 1.35 0 0 0-1.432 1.11 3.083 3.083 0 0 0-.132.82c-.01 3.024-.01 6.05 0 9.075 0 .352 0 .707.016 1.056a1.608 1.608 0 0 0 1.392 1.567c.958.06 1.598-.395 1.784-1.316a6.04 6.04 0 0 0 .104-1.139c.019-1.395-.024-2.791.04-4.183.039-.833.163-1.66.367-2.467.334-1.32 1.093-1.806 2.433-1.653.416.059.825.153 1.225.282a1.3 1.3 0 0 0 1.646-.612 1.384 1.384 0 0 0-.385-1.739z" fill="#FF834B"/></svg>