<svg xmlns="http://www.w3.org/2000/svg" viewBox="0 0 42.81 26.83"><title>Behance Logo</title><g id="Layer_2" data-name="Layer 2"><g id="Layer_1-2" data-name="Layer 1"><path d="M12.42,0a16.2,16.2,0,0,1,3.44.33,7.49,7.49,0,0,1,2.66,1.09,5.09,5.09,0,0,1,1.72,2,7.08,7.08,0,0,1,.6,3.09,5.77,5.77,0,0,1-.9,3.32A6.55,6.55,0,0,1,17.24,12a6.29,6.29,0,0,1,3.62,2.45,7.32,7.32,0,0,1,1.19,4.23,7.29,7.29,0,0,1-.77,3.45,6.72,6.72,0,0,1-2.08,2.38,9.16,9.16,0,0,1-3,1.37,13.36,13.36,0,0,1-3.44.44H0V0Zm-.75,10.64a4.2,4.2,0,0,0,2.55-.74,2.77,2.77,0,0,0,1-2.39A3.13,3.13,0,0,0,14.88,6,2.4,2.4,0,0,0,14,5.08a3.61,3.61,0,0,0-1.28-.46,7.8,7.8,0,0,0-1.49-.13H5.8v6.15ZM12,21.85a7.44,7.44,0,0,0,1.63-.16A3.84,3.84,0,0,0,15,21.13a2.79,2.79,0,0,0,.94-1.05,3.64,3.64,0,0,0,.35-1.71,3.44,3.44,0,0,0-1.14-2.91,4.89,4.89,0,0,0-3-.86H5.8v7.25Z"/><path d="M30.32,21.76a4.66,4.66,0,0,0,3.39,1.15,4.67,4.67,0,0,0,2.74-.8,3.37,3.37,0,0,0,1.4-1.69h4.61a8.75,8.75,0,0,1-3.4,4.92,9.9,9.9,0,0,1-5.52,1.48,11,11,0,0,1-4.07-.72,8.65,8.65,0,0,1-3.08-2.05,9.38,9.38,0,0,1-1.94-3.18,11.65,11.65,0,0,1-.68-4.06,11.19,11.19,0,0,1,.7-4A9.25,9.25,0,0,1,29.55,7.5a9.91,9.91,0,0,1,4-.78,9,9,0,0,1,4.24.94,8.44,8.44,0,0,1,3,2.53,10.35,10.35,0,0,1,1.68,3.62,13.51,13.51,0,0,1,.36,4.25H29A5.34,5.34,0,0,0,30.32,21.76Zm6-10a3.92,3.92,0,0,0-3-1.06,4.5,4.5,0,0,0-2.08.43A4.21,4.21,0,0,0,30,12.16a3.76,3.76,0,0,0-.7,1.34A6,6,0,0,0,29,14.76h8.52A5.1,5.1,0,0,0,36.33,11.74Z"/><rect x="27.95" y="1.77" width="10.67" height="2.6"/></g></g></svg>
