<svg xmlns="http://www.w3.org/2000/svg" viewBox="0 0 663.35 104.56"><defs><style>.cls-1{fill:#d3d9dd;}.cls-2{fill:#d3d9dd;}.cls-3{fill:#d3d9dd;}</style></defs><title>Asset 20</title><g id="Layer_2" data-name="Layer 2"><g id="Logo"><path class="cls-1" d="M56.39,82.27c-3.9-.06-5.81-2.12-5-5.87,2-9.12,4.18-18.21,6.35-27.3,2.51-10.5,5.1-21,7.66-31.48a20.78,20.78,0,0,1,.67-2.15c1.16-3.2,3.53-4.35,6.91-3.37,2.82.81,4.09,3,3.34,6.18q-4.26,18.12-8.66,36.21C65.83,62.2,63.95,69.93,62,77.64,61.09,81.17,59.58,82.31,56.39,82.27Z"/><path class="cls-2" d="M168.81,73.68c-2.13-.91-4.09-1.73-6-2.58q-19-8.24-38-16.45a1.93,1.93,0,0,1-1.45-2.11c.09-2.74.07-5.5,0-8.24a1.54,1.54,0,0,1,1.11-1.68Q146,33.27,167.6,23.89c.33-.14.69-.23,1.2-.39,0,4.05,0,8-.06,11.88,0,.43-.79,1-1.34,1.24q-14,5.48-28.09,10.87c-.65.25-1.28.52-2.24.91.79.37,1.33.65,1.89.87,9.48,3.76,19,7.54,28.46,11.25a1.88,1.88,0,0,1,1.43,2.11C168.76,66.22,168.81,69.83,168.81,73.68Z"/><path class="cls-1" d="M100,52.42c-.6-.46-1-.8-1.43-1.1-4.8-3.23-7.23-7.9-7.89-13.5-.42-3.57-.5-7.19-.68-10.79-.15-2.85-.16-5.71-.35-8.56-.23-3.55-1.63-5-5-5.47-4.72-.62-6.95-4-5.77-8.63a5.2,5.2,0,0,1,4.36-4c10-1.86,19.69,4,20.19,15,.28,6,.45,12.06.61,18.1a13,13,0,0,0,6.1,11.28c.77.5,1.51,1,2.3,1.5,4.87,2.76,4.11,10.46-.32,12.46a19.41,19.41,0,0,0-1.76,1.14c-4.42,2.62-6.19,6.66-6.32,11.63-.17,6-.35,12.06-.6,18.09a15.42,15.42,0,0,1-15.18,15,19.25,19.25,0,0,1-5.87-.63c-2.8-.82-4.11-3.5-3.71-6.73s2.11-5,5-5.47c4.61-.7,5.69-1.75,6-6.44.31-4.89.45-9.79.59-14.69.21-7.37,2.55-13.61,9.06-17.74Z"/><path class="cls-1" d="M45.52,73.49c-2.13-.91-4.09-1.73-6-2.58q-19-8.24-38-16.45A1.93,1.93,0,0,1,0,52.34c.09-2.74.07-5.5,0-8.24a1.54,1.54,0,0,1,1.11-1.68q21.61-9.34,43.2-18.72c.33-.14.69-.23,1.2-.39,0,4.05,0,8-.06,11.88,0,.43-.79,1-1.34,1.24Q30.08,41.9,16,47.3c-.65.25-1.28.52-2.24.91.79.37,1.33.65,1.89.87,9.48,3.76,19,7.54,28.46,11.25a1.88,1.88,0,0,1,1.43,2.11C45.48,66,45.52,69.64,45.52,73.49Z"/><path class="cls-3" d="M244.54,58.15a4.63,4.63,0,0,0-5.38,2.31c-.64,1.17-1.1,2.44-1.63,3.67-2.54,6-7,9.17-13.56,9.27-6.23.09-10.9-2.46-13.74-8.11A23,23,0,0,1,208,56.72c-.46-5.64-.26-11.24,2.12-16.49,2.26-5,6-8.27,11.59-9,6-.79,10.87,1.12,14.3,6.22,1.17,1.75,2.16,3.62,3.35,5.35a5,5,0,0,0,8.77-2.07,9.09,9.09,0,0,0-.2-3.8c-1.37-5-4.68-8.49-9-11.16C232.93,22,226.3,21,219.36,22c-8.63,1.28-15.42,5.57-19.53,13.33-5.42,10.24-5.44,20.9-1.2,31.52a23.83,23.83,0,0,0,12.87,13.67,29.79,29.79,0,0,0,11.89,2.25c8.63.11,15.25-2.46,20-7.77,3.1-3.49,5.22-7.46,5.08-12.31A5,5,0,0,0,244.54,58.15Z"/><path class="cls-3" d="M456.59,58.18a4.65,4.65,0,0,0-5.35,2.61c-.34.63-.55,1.32-.89,2a41.48,41.48,0,0,1-3.09,5.62c-2.72,3.63-6.66,5.07-11.06,5.14-5.05.08-9.41-1.56-12.45-5.85a21.17,21.17,0,0,1-3.57-10.46c-.55-5.7-.37-11.33,1.89-16.66,2.37-5.59,6.6-9,12.77-9.51s10.69,1.93,13.86,7.14c.92,1.51,1.79,3.06,2.81,4.5a4.69,4.69,0,0,0,5.88,1.56,5.16,5.16,0,0,0,3-5.37c-.85-6-4.5-10-9.37-13.05-6.18-3.9-13-4.82-20-3.62-9.08,1.55-15.93,6.41-19.79,14.88-4.25,9.33-4.29,19-.85,28.53C412.63,71.91,416.57,77,422.74,80a28.7,28.7,0,0,0,13,2.71c7.44.07,13.79-1.75,18.87-6.84,3.52-3.52,5.91-7.64,6-12.79A5,5,0,0,0,456.59,58.18Z"/><path class="cls-3" d="M348.78,26.1c-.49-3-2.09-4.38-4.9-4.41s-4.36,1.37-4.9,4.25a17.54,17.54,0,0,0-.27,3.14c0,4.61,0,9.21,0,13.82,0,.49,0,1,0,1.8-.63-.54-1-.79-1.27-1.08a17.94,17.94,0,0,0-14.74-5.4,16.6,16.6,0,0,0-12.35,6.44A21.77,21.77,0,0,0,306,56.5c-.57,6.38.15,12.55,3.6,18.13A16.74,16.74,0,0,0,333.53,80a59.94,59.94,0,0,0,5.11-4.23c0,.7,0,1.23.08,1.75.19,3,2.05,5.16,4.64,5.31,3.07.17,4.89-1.33,5.47-4.59A12.27,12.27,0,0,0,349,76q0-23.69,0-47.37A15.84,15.84,0,0,0,348.78,26.1ZM336.3,69.25a9.65,9.65,0,0,1-17,.43,18.16,18.16,0,0,1,0-18.65c3.84-6.84,13.09-6.38,16.92.62a19.37,19.37,0,0,1,2.05,8.81A19.6,19.6,0,0,1,336.3,69.25Z"/><path class="cls-3" d="M508.46,64c.15-4.31.14-8.63-.13-12.93s-1.61-8.11-5.6-10.42a19.05,19.05,0,0,0-7.79-2.27c-5.78-.59-11.49-.51-16.94,1.87-3.48,1.52-6.16,3.83-7.3,7.62-.77,2.57,0,4.77,2.2,5.7,1.74.74,4.15,1,5.66-1.72a15.44,15.44,0,0,1,3.4-4.2c3.19-2.67,7-2.3,10.84-1.85a5.23,5.23,0,0,1,4.59,4.16c.29,1,.31,2.08.52,3.11.17.85-.18,1.24-1,1.43-2.46.61-4.9,1.29-7.37,1.87-4.19,1-8.44,1.71-12.57,2.91s-7.32,4.06-8.24,8.55c-1.68,8.18,4.1,14.22,12,14.88a22.36,22.36,0,0,0,15.16-4.27c.85-.6,1.74-1.13,2.69-1.75.62.81,1.15,1.54,1.71,2.25A25.51,25.51,0,0,0,502,81c1.83,1.87,3.89,2.23,6,1.09s3-2.83,2.18-5.55A40,40,0,0,1,508.46,64ZM496.7,70.15c-2.14,4.49-9.26,7.07-13.77,5A5.75,5.75,0,0,1,479.3,70a4.85,4.85,0,0,1,3.06-5.2,63.14,63.14,0,0,1,7.11-2.11c2.4-.64,4.82-1.21,7.24-1.78a11.13,11.13,0,0,1,1.37-.13C498.07,64.14,498.08,67.26,496.7,70.15Z"/><path class="cls-3" d="M379.37,63.15c4.94-.06,9.88,0,14.8-.3,4.27-.23,6.13-2.29,6-6.48-.31-7.16-3.59-12.61-10-16-4.34-2.33-9.05-2.71-13.84-2.1-7.55,1-13.22,4.68-16.11,11.92a27.27,27.27,0,0,0-.27,19.93A17.68,17.68,0,0,0,370.51,81,26.59,26.59,0,0,0,377,82.61c5.57.63,11,.11,16-2.82,2.69-1.59,5-3.59,6.09-6.64.74-2,.38-3.71-1-4.66a4.3,4.3,0,0,0-5.18.48c-.75.67-1.43,1.42-2.22,2a33.57,33.57,0,0,1-4.29,3.12c-3.89,2.15-7.93,2.29-11.73-.11s-5-6.29-5.28-10.85C372.86,63.15,376.11,63.19,379.37,63.15Zm.19-17.47c5.95,0,9.75,4.28,9.93,11.22H369.6C369.82,50.08,373.76,45.65,379.55,45.68Z"/><path class="cls-3" d="M292.07,42.69c-5.26-4.18-11.35-5.1-17.79-4.35a19.58,19.58,0,0,0-13.67,7.35,21.86,21.86,0,0,0-4.49,11.78c-.54,5.72.19,11.23,3.4,16.13,3.92,6,9.66,8.8,16.7,9.17,5.56.3,10.81-.68,15.34-4.13,6-4.55,8.15-10.89,8.13-18.14,0-.86.07-1.73,0-2.59C299.12,51.85,297,46.58,292.07,42.69Zm-3.23,17.82a18,18,0,0,1-2.11,9.12c-2.22,3.89-5.66,5.47-10,5.09a9.53,9.53,0,0,1-8.45-6.62A20.37,20.37,0,0,1,268.65,52c1.9-4.21,5.34-6.09,9.95-5.86a9.3,9.3,0,0,1,8.73,6.37,60.19,60.19,0,0,1,1.91,7.87Z"/><path class="cls-3" d="M617.5,40.19a24.7,24.7,0,0,0-14.9-1.58,19.29,19.29,0,0,0-11.79,6.57,21.84,21.84,0,0,0-5,12.75c-.53,6.62.65,12.85,5.23,17.94,5.79,6.42,13.24,7.76,21.39,6.44a19.14,19.14,0,0,0,11.78-6.55c3.77-4.39,5.19-9.6,5.32-15.31-.26-2-.41-4-.81-6A19.23,19.23,0,0,0,617.5,40.19Zm1,20.26A17.35,17.35,0,0,1,616.24,70a10.19,10.19,0,0,1-17.34.09c-2.55-4.25-2.85-8.93-2-13.74.63-3.51,1.88-6.66,5-8.69,4.23-2.78,11.72-2.42,14.91,4.12A18.36,18.36,0,0,1,618.52,60.45Z"/><path class="cls-3" d="M663.23,76.37c-.48-1.9-2.28-2.73-4.91-2.32a27.69,27.69,0,0,1-3.84.44,3.1,3.1,0,0,1-3.27-2.82,20.72,20.72,0,0,1-.29-3.15c0-6.76,0-13.52,0-20.28,0-1.06.35-1.44,1.4-1.47a32.5,32.5,0,0,0,4.43-.37,3.54,3.54,0,0,0,.3-7,17.71,17.71,0,0,0-4.41-.31c-1.31,0-1.73-.34-1.73-1.68,0-3.3,0-6.61-.3-9.9a4.84,4.84,0,0,0-5.16-4.35,5,5,0,0,0-5,4.68c-.16,2.44-.19,4.88-.26,7.33,0,1.23,0,2.47,0,3.9-.92,0-1.54,0-2.16,0-3,.27-4.71,2.4-4,5,.45,1.55,1.94,2.49,4.2,2.63,1.91.12,1.91.12,1.91,2.05,0,5.9-.08,11.8,0,17.69a78.22,78.22,0,0,0,.74,9.14A7.38,7.38,0,0,0,646.6,82a22.43,22.43,0,0,0,13.69-.52A4.43,4.43,0,0,0,663.23,76.37Z"/><path class="cls-3" d="M579.13,38.78c-4.18-1.29-8.58-.85-11.37,3.31-.55.82-1.2,1.58-2.09,2.75-.14-.88-.23-1.33-.29-1.79-.41-3.13-1.94-4.71-4.68-4.86s-4.49,1.15-5.23,4.22a13.14,13.14,0,0,0-.31,3q0,12.66,0,25.33c0,2.11,0,4.22,0,6.33.07,3,2,5.41,4.49,5.67,3.15.33,5.21-1.18,6-4.45a11.56,11.56,0,0,0,.29-2.56c0-4.37-.12-8.74.08-13.09a60.11,60.11,0,0,1,1.17-9.23c.78-3.84,2.78-5.8,6.21-5.89a25.2,25.2,0,0,1,6.16,1.11,4.41,4.41,0,0,0,5.06-2,4.09,4.09,0,0,0-.69-5.13A14.74,14.74,0,0,0,579.13,38.78Z"/><path class="cls-3" d="M548.17,40.81a13.32,13.32,0,0,0-8.33-2.63,8.45,8.45,0,0,0-7.11,3.66l-2.22,3c-.25-1.21-.38-2.1-.63-3-.76-2.64-2.12-3.66-4.77-3.65a4.41,4.41,0,0,0-4.68,3.63A10.1,10.1,0,0,0,520,44.5q-.05,14.82,0,29.65c0,1.15,0,2.31.05,3.45a5.26,5.26,0,0,0,4.55,5.12c3.13.2,5.22-1.29,5.83-4.3a20,20,0,0,0,.34-3.72c.06-4.56-.08-9.12.13-13.67a40.53,40.53,0,0,1,1.2-8.06c1.09-4.31,3.57-5.9,7.95-5.4a23.72,23.72,0,0,1,4,.92,4.25,4.25,0,0,0,5.38-2A4.53,4.53,0,0,0,548.17,40.81Z"/></g></g></svg>