<svg xmlns="http://www.w3.org/2000/svg" viewBox="0 0 168.84 104.56"><defs><style>.cls-1{fill:#ff7c41;}.cls-2{fill:#00d664;}</style></defs><title>Asset 6</title><g id="Layer_2" data-name="Layer 2"><g id="Layer_1-2" data-name="Layer 1"><path class="cls-1" d="M56.39,82.27c-3.9-.06-5.81-2.12-5-5.87,2-9.12,4.18-18.21,6.35-27.3,2.51-10.5,5.1-21,7.66-31.48a20.78,20.78,0,0,1,.67-2.15c1.16-3.2,3.53-4.35,6.91-3.37,2.82.81,4.09,3,3.34,6.18q-4.26,18.12-8.66,36.21C65.83,62.2,63.95,69.93,62,77.64,61.09,81.17,59.58,82.31,56.39,82.27Z"/><path class="cls-2" d="M168.81,73.68c-2.13-.91-4.09-1.73-6-2.58q-19-8.24-38-16.45a1.93,1.93,0,0,1-1.45-2.11c.09-2.74.07-5.5,0-8.24a1.54,1.54,0,0,1,1.11-1.68Q146,33.27,167.6,23.89c.33-.14.69-.23,1.2-.39,0,4.05,0,8-.06,11.88,0,.43-.79,1-1.34,1.24q-14,5.48-28.09,10.87c-.65.25-1.28.52-2.24.91.79.37,1.33.65,1.89.87,9.48,3.76,19,7.54,28.46,11.25a1.88,1.88,0,0,1,1.43,2.11C168.76,66.22,168.81,69.83,168.81,73.68Z"/><path class="cls-1" d="M100,52.42c-.6-.46-1-.8-1.43-1.1-4.8-3.23-7.23-7.9-7.89-13.5-.42-3.57-.5-7.19-.68-10.79-.15-2.85-.16-5.71-.35-8.56-.23-3.55-1.63-5-5-5.47-4.72-.62-6.95-4-5.77-8.63a5.2,5.2,0,0,1,4.36-4c10-1.86,19.69,4,20.19,15,.28,6,.45,12.06.61,18.1a13,13,0,0,0,6.1,11.28c.77.5,1.51,1,2.3,1.5,4.87,2.76,4.11,10.46-.32,12.46a19.41,19.41,0,0,0-1.76,1.14c-4.42,2.62-6.19,6.66-6.32,11.63-.17,6-.35,12.06-.6,18.09a15.42,15.42,0,0,1-15.18,15,19.25,19.25,0,0,1-5.87-.63c-2.8-.82-4.11-3.5-3.71-6.73s2.11-5,5-5.47c4.61-.7,5.69-1.75,6-6.44.31-4.89.45-9.79.59-14.69.21-7.37,2.55-13.61,9.06-17.74Z"/><path class="cls-1" d="M45.52,73.49c-2.13-.91-4.09-1.73-6-2.58q-19-8.24-38-16.45A1.93,1.93,0,0,1,0,52.34c.09-2.74.07-5.5,0-8.24a1.54,1.54,0,0,1,1.11-1.68q21.61-9.34,43.2-18.72c.33-.14.69-.23,1.2-.39,0,4.05,0,8-.06,11.88,0,.43-.79,1-1.34,1.24Q30.08,41.9,16,47.3c-.65.25-1.28.52-2.24.91.79.37,1.33.65,1.89.87,9.48,3.76,19,7.54,28.46,11.25a1.88,1.88,0,0,1,1.43,2.11C45.48,66,45.52,69.64,45.52,73.49Z"/></g></g></svg>